<svg width="50" height="50" viewBox="0 0 50 50" fill="none" xmlns="http://www.w3.org/2000/svg">
<path d="M27.0834 28.6625C27.0834 30.5167 29.3271 31.448 30.6396 30.1355L36.7855 23.9896C36.9776 23.7906 37.2075 23.6319 37.4617 23.5227C37.7159 23.4136 37.9893 23.3561 38.2659 23.3537C38.5425 23.3513 38.8168 23.404 39.0729 23.5087C39.3289 23.6135 39.5615 23.7682 39.7571 23.9638C39.9527 24.1594 40.1074 24.392 40.2122 24.6481C40.3169 24.9041 40.3696 25.1784 40.3672 25.455C40.3648 25.7317 40.3074 26.005 40.1982 26.2592C40.089 26.5134 39.9303 26.7433 39.7313 26.9355L26.473 40.1938C26.0823 40.5844 25.5525 40.8038 25 40.8038C24.4476 40.8038 23.9178 40.5844 23.5271 40.1938L10.2688 26.9355C10.0698 26.7433 9.9111 26.5134 9.80192 26.2592C9.69273 26.005 9.63526 25.7317 9.63285 25.455C9.63045 25.1784 9.68316 24.9041 9.78792 24.6481C9.89267 24.392 10.0474 24.1594 10.243 23.9638C10.4386 23.7682 10.6712 23.6135 10.9272 23.5087C11.1833 23.404 11.4576 23.3513 11.7342 23.3537C12.0108 23.3561 12.2842 23.4136 12.5384 23.5227C12.7926 23.6319 13.0224 23.7906 13.2146 23.9896L19.3605 30.1355C20.673 31.448 22.9167 30.5188 22.9167 28.6625L22.9167 10.4167C22.9167 9.86417 23.1362 9.33427 23.5269 8.94357C23.9176 8.55287 24.4475 8.33337 25 8.33337C25.5526 8.33337 26.0825 8.55287 26.4732 8.94357C26.8639 9.33427 27.0834 9.86417 27.0834 10.4167L27.0834 28.6625Z" fill="#59B2F6"/>
</svg>
