<svg width="24" height="24" viewBox="0 0 24 24" fill="none" xmlns="http://www.w3.org/2000/svg">
<g clip-path="url(#clip0_49_80)">
<path d="M0.064209 10.875C0.287795 8.4047 1.24146 6.1547 2.69705 4.34532L4.77321 6.47814C3.83324 7.72501 3.20354 9.2297 3.00277 10.875H0.064209ZM6.32463 4.88907L4.24391 2.75626C6.00522 1.26095 8.19545 0.281262 10.6001 0.0515747V3.07032C8.99854 3.27657 7.53382 3.92345 6.32463 4.88907ZM12.7904 20.9297C14.392 20.7234 15.8567 20.0766 17.0659 19.1109L19.1421 21.2438C17.3853 22.7391 15.1951 23.7188 12.7904 23.9484V20.9297ZM18.6173 17.5172C19.5573 16.2703 20.1915 14.7656 20.3878 13.125H23.3263C23.1027 15.5953 22.1491 17.8453 20.6935 19.6547L18.6173 17.5219V17.5172ZM4.24391 21.2438L6.32007 19.1109C7.53382 20.0766 8.99854 20.7281 10.5956 20.9297V23.9484C8.19089 23.7188 6.00066 22.7391 4.23934 21.2438H4.24391ZM2.69705 19.6547C1.24146 17.8453 0.287795 15.5953 0.064209 13.125H3.00277C3.20354 14.7703 3.83324 16.275 4.77321 17.5172L2.69705 19.6547ZM19.1466 2.75626L17.0705 4.88907C15.8567 3.92345 14.392 3.27657 12.7904 3.07032V0.0515747C15.1951 0.281262 17.3853 1.26095 19.1466 2.75626ZM18.6173 6.48282L20.6935 4.35001C22.1491 6.1547 23.1027 8.40939 23.3263 10.8797H20.3878C20.187 9.23439 19.5573 7.7297 18.6173 6.48751V6.48282Z" fill="#0094FF"/>
</g>
<defs>
<clipPath id="clip0_49_80">
<rect width="23.3625" height="24" fill="white" transform="translate(0.0141602)"/>
</clipPath>
</defs>
</svg>
