<svg width="30" height="30" viewBox="0 0 30 30" fill="none" xmlns="http://www.w3.org/2000/svg">
<path fill-rule="evenodd" clip-rule="evenodd" d="M15 30C18.9782 30 22.7936 28.4196 25.6066 25.6066C28.4196 22.7936 30 18.9782 30 15C30 11.0218 28.4196 7.20644 25.6066 4.3934C22.7936 1.58035 18.9782 0 15 0C11.0218 0 7.20644 1.58035 4.3934 4.3934C1.58035 7.20644 0 11.0218 0 15C0 18.9782 1.58035 22.7936 4.3934 25.6066C7.20644 28.4196 11.0218 30 15 30ZM10.701 8.049C10.5269 7.87487 10.3201 7.73674 10.0926 7.6425C9.86511 7.54826 9.62126 7.49975 9.375 7.49975C9.12874 7.49975 8.88489 7.54826 8.65737 7.6425C8.42986 7.73674 8.22313 7.87487 8.049 8.049C7.87487 8.22313 7.73674 8.42986 7.6425 8.65737C7.54826 8.88489 7.49975 9.12874 7.49975 9.375C7.49975 9.62126 7.54826 9.86511 7.6425 10.0926C7.73674 10.3201 7.87487 10.5269 8.049 10.701L12.348 15L8.049 19.299C7.87487 19.4731 7.73674 19.6799 7.6425 19.9074C7.54826 20.1349 7.49975 20.3787 7.49975 20.625C7.49975 21.1223 7.69732 21.5993 8.049 21.951C8.40068 22.3027 8.87765 22.5002 9.375 22.5002C9.87235 22.5002 10.3493 22.3027 10.701 21.951L15 17.652L19.299 21.951C19.4731 22.1251 19.6799 22.2633 19.9074 22.3575C20.1349 22.4517 20.3787 22.5002 20.625 22.5002C20.8713 22.5002 21.1151 22.4517 21.3426 22.3575C21.5701 22.2633 21.7769 22.1251 21.951 21.951C22.1251 21.7769 22.2633 21.5701 22.3575 21.3426C22.4517 21.1151 22.5002 20.8713 22.5002 20.625C22.5002 20.3787 22.4517 20.1349 22.3575 19.9074C22.2633 19.6799 22.1251 19.4731 21.951 19.299L17.652 15L21.951 10.701C22.3027 10.3493 22.5002 9.87235 22.5002 9.375C22.5002 8.87765 22.3027 8.40068 21.951 8.049C21.5993 7.69732 21.1223 7.49975 20.625 7.49975C20.1277 7.49975 19.6507 7.69732 19.299 8.049L15 12.348L10.701 8.049Z" fill="#EC2A2A"/>
</svg>
