<svg width="35" height="35" viewBox="0 0 35 35" fill="none" xmlns="http://www.w3.org/2000/svg">
<g clip-path="url(#clip0_64_32)">
<mask id="mask0_64_32" style="mask-type:luminance" maskUnits="userSpaceOnUse" x="0" y="0" width="35" height="35">
<path d="M0 0H35V35H0V0Z" fill="white"/>
</mask>
<g mask="url(#mask0_64_32)">
<path d="M15.0448 5.25H2.149C0.9625 5.25 0 6.2475 0 7.47775V23.0685H2.149V7.476H15.0448V5.25ZM18.2683 9.70375H6.447C5.2605 9.70375 4.298 10.7012 4.298 11.9315V27.524C4.298 28.7525 5.2605 29.75 6.447 29.75H18.2683C19.4548 29.75 20.4172 28.7525 20.4172 27.5223V11.9315C20.4172 10.7012 19.4548 9.70375 18.2683 9.70375ZM18.2683 27.5223H6.447V11.9315H18.2683V27.5223Z" fill="#879FCB" stroke="#879FCB" stroke-width="0.3"/>
</g>
</g>
<defs>
<clipPath id="clip0_64_32">
<rect width="35" height="35" fill="white"/>
</clipPath>
</defs>
</svg>
