<svg width="24" height="24" viewBox="0 0 24 24" fill="none" xmlns="http://www.w3.org/2000/svg">
<g clip-path="url(#clip0_49_86)">
<path d="M11.6589 0C13.0133 0 14.1075 0.670312 14.1075 1.5V3.17344C14.23 3.18281 14.3447 3.19219 14.4672 3.20625C14.4978 3.21094 14.5207 3.21094 14.5514 3.21562L18.2244 3.62813C19.5558 3.77813 20.4358 4.56094 20.1909 5.37187C19.9461 6.18281 18.6682 6.72656 17.3444 6.57656L13.7096 6.16875C11.3145 5.95313 9.20255 6.09844 7.71805 6.45938C6.23355 6.82031 5.63668 7.31719 5.49895 7.77656C5.3459 8.27812 5.46069 8.55937 5.59077 8.73281C5.72851 8.91563 6.01164 9.12187 6.57024 9.35156C7.81753 9.85312 9.73055 10.1813 12.2098 10.5844L12.4317 10.6219C14.6202 10.9781 17.2985 11.4094 19.288 12.2062C20.3746 12.6422 21.4 13.2328 22.0351 14.0578C22.6855 14.8969 22.8232 15.8344 22.5248 16.8328C21.9968 18.6141 19.992 19.8047 17.5051 20.4281C16.4567 20.6906 15.3166 20.8594 14.1075 20.9437V22.5C14.1075 23.3297 13.0133 24 11.6589 24C10.3045 24 9.2102 23.3297 9.2102 22.5V20.8641C9.1796 20.8594 9.14133 20.8594 9.11073 20.8547H9.09542C7.22832 20.6766 4.15983 20.1844 2.09377 19.6219C0.861787 19.2844 0.303185 18.3984 0.854135 17.6437C1.40508 16.8891 2.85133 16.5469 4.08331 16.8844C5.6826 17.3203 8.31491 17.7516 9.83767 17.8969C12.2787 18.1172 14.2912 17.9906 15.6533 17.6484C16.9465 17.325 17.5357 16.8563 17.704 16.2938C17.8494 15.7969 17.7346 15.5109 17.6045 15.3375C17.4591 15.15 17.176 14.9437 16.6098 14.7141C15.3548 14.2125 13.4342 13.8844 10.9472 13.4813L10.733 13.4484C8.55212 13.0922 5.8739 12.6562 3.88436 11.8594C2.79776 11.4234 1.78004 10.8281 1.14491 10.0031C0.50214 9.16406 0.372054 8.22656 0.678137 7.22812C1.22909 5.4375 3.41758 4.275 5.90451 3.67031C6.92223 3.42188 8.03944 3.25313 9.2102 3.15469V1.5C9.2102 0.670312 10.3045 0 11.6589 0Z" fill="#0094FF"/>
</g>
<defs>
<clipPath id="clip0_49_86">
<rect width="23.3625" height="24" fill="white" transform="translate(0.176575)"/>
</clipPath>
</defs>
</svg>
