<svg width="55" height="55" viewBox="0 0 55 55" fill="none" xmlns="http://www.w3.org/2000/svg">
<path d="M29.9062 37.24H25.5978C22.5499 37.24 20.052 34.6734 20.052 31.5109C20.052 30.5713 20.8312 29.7921 21.7708 29.7921C22.7103 29.7921 23.4895 30.5713 23.4895 31.5109C23.4895 32.7713 24.4291 33.8025 25.5978 33.8025H29.9062C30.7999 33.8025 31.5103 33.0005 31.5103 32.015C31.5103 30.7775 31.1666 30.5942 30.3874 30.3192L23.4895 27.913C22.0228 27.4088 20.052 26.3317 20.052 22.963C20.052 20.0984 22.3208 17.738 25.0937 17.738H29.402C32.4499 17.738 34.9478 20.3047 34.9478 23.4671C34.9478 24.4067 34.1687 25.1859 33.2291 25.1859C32.2895 25.1859 31.5103 24.4067 31.5103 23.4671C31.5103 22.2068 30.5708 21.1755 29.402 21.1755H25.0937C24.1999 21.1755 23.4895 21.9776 23.4895 22.963C23.4895 24.2005 23.8333 24.3838 24.6124 24.6588L31.5103 27.065C32.977 27.5692 34.9478 28.6463 34.9478 32.015C34.9478 34.9025 32.6791 37.24 29.9062 37.24Z" fill="white"/>
<path d="M27.5 39.5312C26.5604 39.5312 25.7812 38.7521 25.7812 37.8125V17.1875C25.7812 16.2479 26.5604 15.4688 27.5 15.4688C28.4396 15.4688 29.2188 16.2479 29.2188 17.1875V37.8125C29.2188 38.7521 28.4396 39.5312 27.5 39.5312Z" fill="white"/>
<path d="M27.4999 52.1354C13.9103 52.1354 2.8645 41.0896 2.8645 27.5C2.8645 13.9104 13.9103 2.86458 27.4999 2.86458C28.4395 2.86458 29.2187 3.64374 29.2187 4.58333C29.2187 5.52291 28.4395 6.30208 27.4999 6.30208C15.8124 6.30208 6.302 15.8125 6.302 27.5C6.302 39.1875 15.8124 48.6979 27.4999 48.6979C39.1874 48.6979 48.6978 39.1875 48.6978 27.5C48.6978 26.5604 49.477 25.7812 50.4166 25.7812C51.3562 25.7812 52.1353 26.5604 52.1353 27.5C52.1353 41.0896 41.0895 52.1354 27.4999 52.1354Z" fill="white"/>
<path d="M48.1249 17.7604H38.9583C38.0187 17.7604 37.2395 16.9812 37.2395 16.0417V6.875C37.2395 5.93542 38.0187 5.15625 38.9583 5.15625C39.8978 5.15625 40.677 5.93542 40.677 6.875V14.3229H48.1249C49.0645 14.3229 49.8437 15.1021 49.8437 16.0417C49.8437 16.9812 49.0645 17.7604 48.1249 17.7604Z" fill="white"/>
<path d="M38.9572 17.7614C38.5217 17.7614 38.0863 17.601 37.7426 17.2572C37.078 16.5926 37.078 15.4926 37.7426 14.8281L49.2009 3.36973C49.8655 2.70515 50.9655 2.70515 51.6301 3.36973C52.2947 4.03431 52.2947 5.13431 51.6301 5.7989L40.1717 17.2572C39.828 17.601 39.3926 17.7614 38.9572 17.7614Z" fill="white"/>
</svg>
