<svg width="24" height="24" viewBox="0 0 24 24" fill="none" xmlns="http://www.w3.org/2000/svg">
<g clip-path="url(#clip0_49_82)">
<path d="M16.4381 12C16.4381 13.0406 16.3825 14.0437 16.2853 15H7.69917C7.59728 14.0437 7.54634 13.0406 7.54634 12C7.54634 10.9594 7.60192 9.95625 7.69917 9H16.2853C16.3872 9.95625 16.4381 10.9594 16.4381 12ZM17.7719 9H23.4728C23.7182 9.96094 23.8479 10.9641 23.8479 12C23.8479 13.0359 23.7182 14.0391 23.4728 15H17.7719C17.8691 14.0344 17.9201 13.0312 17.9201 12C17.9201 10.9688 17.8691 9.96562 17.7719 9ZM22.9865 7.5H17.582C17.1189 4.50469 16.2019 1.99688 15.021 0.39375C18.6472 1.36406 21.5972 4.02656 22.9819 7.5H22.9865ZM16.0815 7.5H7.90294C8.18544 5.79375 8.62076 4.28438 9.15334 3.06094C9.63961 1.95469 10.1815 1.15313 10.7048 0.646875C11.2235 0.15 11.6542 0 11.9922 0C12.3303 0 12.761 0.15 13.2797 0.646875C13.803 1.15313 14.3448 1.95469 14.8311 3.06094C15.3683 4.27969 15.799 5.78906 16.0815 7.5ZM6.40245 7.5H0.997926C2.38726 4.02656 5.33266 1.36406 8.96347 0.39375C7.78253 1.99688 6.86557 4.50469 6.40245 7.5ZM0.511657 9H6.21258C6.11532 9.96562 6.06438 10.9688 6.06438 12C6.06438 13.0312 6.11532 14.0344 6.21258 15H0.511657C0.266207 14.0391 0.136536 13.0359 0.136536 12C0.136536 10.9641 0.266207 9.96094 0.511657 9ZM9.15334 20.9344C8.61613 19.7156 8.18544 18.2062 7.90294 16.5H16.0815C15.799 18.2062 15.3637 19.7156 14.8311 20.9344C14.3448 22.0406 13.803 22.8422 13.2797 23.3484C12.761 23.85 12.3303 24 11.9922 24C11.6542 24 11.2235 23.85 10.7048 23.3531C10.1815 22.8469 9.63961 22.0453 9.15334 20.9391V20.9344ZM6.40245 16.5C6.86557 19.4953 7.78253 22.0031 8.96347 23.6063C5.33266 22.6359 2.38726 19.9734 0.997926 16.5H6.40245ZM22.9865 16.5C21.5972 19.9734 18.6518 22.6359 15.0256 23.6063C16.2066 22.0031 17.1189 19.4953 17.5866 16.5H22.9865Z" fill="#0094FF"/>
</g>
<defs>
<clipPath id="clip0_49_82">
<rect width="23.3625" height="24" fill="white" transform="translate(0.435974)"/>
</clipPath>
</defs>
</svg>
