<svg width="50" height="50" viewBox="0 0 50 50" fill="none" xmlns="http://www.w3.org/2000/svg">
<path fill-rule="evenodd" clip-rule="evenodd" d="M32.585 7.5H17.4125C11.4675 7.5 7.5 11.7575 7.5 17.8525V32.1475C7.5 38.2475 11.4575 42.5 17.4125 42.5H32.5825C38.54 42.5 42.5 38.25 42.5 32.1475V17.85C42.5 11.7525 38.54 7.5 32.585 7.5ZM17.4125 10.125H32.585C37.0475 10.125 39.875 13.16 39.875 17.8525V32.1475C39.875 36.84 37.05 39.875 32.5825 39.875H17.415C12.95 39.875 10.125 36.84 10.125 32.1475V17.85C10.125 13.165 12.96 10.1225 17.4125 10.1225V10.125ZM25 17.045C25.3324 17.0452 25.6523 17.1714 25.8952 17.3983C26.1381 17.6252 26.2858 17.9357 26.3087 18.2673C26.3315 18.5989 26.2277 18.9267 26.0182 19.1848C25.8088 19.4428 25.5092 19.6117 25.18 19.6575L24.9825 19.67C24.6506 19.6686 24.3315 19.5414 24.0895 19.3142C23.8476 19.0869 23.7007 18.7764 23.6786 18.4452C23.6564 18.114 23.7605 17.7867 23.97 17.5292C24.1795 17.2717 24.4787 17.1032 24.8075 17.0575L25 17.045ZM24.9825 22.5975C25.6475 22.5975 26.1975 23.0925 26.2825 23.7325L26.295 23.91V31.6425C26.2948 31.9749 26.1686 32.2948 25.9417 32.5377C25.7148 32.7806 25.4043 32.9283 25.0727 32.9512C24.7411 32.974 24.4133 32.8702 24.1552 32.6608C23.8972 32.4513 23.7283 32.1517 23.6825 31.8225L23.67 31.6425V23.91C23.67 23.185 24.2575 22.5975 24.9825 22.5975Z" fill="#2C91DE"/>
</svg>
