<svg width="16" height="16" viewBox="0 0 16 16" fill="none" xmlns="http://www.w3.org/2000/svg">
<path fill-rule="evenodd" clip-rule="evenodd" d="M13.9126 9.56117C13.6293 9.73738 13.2959 9.75941 13.0423 9.61844C12.7203 9.4394 12.5431 9.02059 12.5431 8.43627V6.69087C12.5431 5.8479 12.2049 5.24817 11.6393 5.08612C10.6811 4.81111 9.96 5.96716 9.68885 6.40044L7.9984 9.10083V5.80039C7.97924 5.04081 7.72917 4.58644 7.25362 4.44957C6.93936 4.35895 6.4686 4.39545 6.01158 5.08454L2.22412 11.0759C1.71708 10.1276 1.45275 9.07168 1.45411 7.99984C1.45411 4.39041 4.3898 1.45497 7.9984 1.45497C11.607 1.45497 14.5424 4.39136 14.5424 7.99984C14.5424 8.00614 14.544 8.01149 14.5443 8.01715C14.5446 8.02281 14.5443 8.02911 14.5443 8.0354C14.5785 8.73425 14.3488 9.29025 13.9135 9.56117H13.9126ZM15.9965 8.00047V7.98254V7.9646C15.9757 3.56853 12.3962 0 7.99808 0C3.58817 0 0 3.58866 0 8.00016C0 12.4117 3.58817 16 7.9984 16C10.0212 16.0004 11.9672 15.2369 13.4361 13.8666C13.578 13.7343 13.6615 13.5525 13.6688 13.3601C13.676 13.1677 13.6063 12.9803 13.4747 12.838C13.3464 12.6988 13.1673 12.6154 12.9767 12.6063C12.786 12.5971 12.5995 12.6629 12.4581 12.7892L12.4473 12.799C11.2457 13.9203 9.65345 14.5451 7.9984 14.5447C6.06619 14.5447 4.32784 13.7021 3.12891 12.366L6.54429 6.96368V9.4545C6.54429 10.6502 7.01537 11.0379 7.41012 11.1508C7.80486 11.2638 8.40944 11.1867 9.04371 10.1722L10.9226 7.17167C10.983 7.07475 11.0382 6.99137 11.089 6.91994V8.43722C11.089 9.55582 11.5438 10.451 12.3365 10.8915C13.0509 11.2886 13.9493 11.2528 14.6813 10.7971C15.5682 10.244 16.0463 9.22669 15.9965 8.00047Z" fill="#8BCDFF"/>
</svg>
