<svg width="50" height="50" viewBox="0 0 50 50" fill="none" xmlns="http://www.w3.org/2000/svg">
<path fill-rule="evenodd" clip-rule="evenodd" d="M44.425 19.485H2.46749C1.97756 19.4853 1.49906 19.3371 1.09499 19.06C0.68716 18.7799 0.370699 18.3861 0.184991 17.9275C0.000765443 17.463 -0.0458073 16.9552 0.0508379 16.4649C0.147483 15.9746 0.383259 15.5224 0.729991 15.1625L10.035 5.59504C10.5042 5.1889 11.1112 4.97809 11.7311 5.006C12.3511 5.0339 12.9367 5.29839 13.3675 5.74504C13.8064 6.19939 14.0635 6.79886 14.0902 7.43001C14.1169 8.06116 13.9114 8.68021 13.5125 9.17004L8.42749 14.41H44.425C45.08 14.41 45.7075 14.6775 46.17 15.1525C46.636 15.6334 46.8966 16.2767 46.8966 16.9463C46.8966 17.6159 46.636 18.2592 46.17 18.74C45.9437 18.9743 45.6726 19.1608 45.3728 19.2883C45.0731 19.4159 44.7508 19.4844 44.425 19.485ZM5.57499 30.165H47.5325C48.02 30.165 48.4975 30.3125 48.905 30.59C49.31 30.865 49.6275 31.2625 49.815 31.725C49.9989 32.1896 50.0453 32.6973 49.9487 33.1876C49.852 33.6779 49.6165 34.13 49.27 34.49L39.9275 44.095L39.9125 44.1125C39.6934 44.3748 39.4223 44.5888 39.1164 44.7411C38.8105 44.8934 38.4763 44.9807 38.135 44.9975C37.7933 45.0119 37.4525 44.9534 37.1353 44.8258C36.818 44.6982 36.5315 44.5045 36.295 44.2575C36.0513 44.0084 35.8614 43.7119 35.7371 43.3863C35.6128 43.0608 35.5568 42.7132 35.5725 42.365C35.587 42.0183 35.6708 41.6779 35.8189 41.3641C35.9671 41.0502 36.1765 40.7692 36.435 40.5375L36.4525 40.52L41.57 35.24H5.57499C5.24905 35.2391 4.92662 35.1727 4.62686 35.0447C4.32709 34.9167 4.05611 34.7298 3.82999 34.495C3.36465 34.0144 3.10463 33.3715 3.10499 32.7025C3.10499 32.0275 3.36749 31.385 3.82999 30.9075C4.0564 30.6733 4.3275 30.487 4.62724 30.3594C4.92697 30.2319 5.24925 30.1658 5.57499 30.165Z" fill="#879FCB"/>
</svg>
