<svg width="30" height="30" viewBox="0 0 30 30" fill="none" xmlns="http://www.w3.org/2000/svg">
<g clip-path="url(#clip0_60_56)">
<path fill-rule="evenodd" clip-rule="evenodd" d="M15 30C18.9782 30 22.7936 28.4196 25.6066 25.6066C28.4196 22.7936 30 18.9782 30 15C30 11.0218 28.4196 7.20644 25.6066 4.3934C22.7936 1.58035 18.9782 0 15 0C11.0218 0 7.20644 1.58035 4.3934 4.3934C1.58035 7.20644 0 11.0218 0 15C0 18.9782 1.58035 22.7936 4.3934 25.6066C7.20644 28.4196 11.0218 30 15 30ZM22.656 10.044C22.9046 9.61316 22.9719 9.10119 22.8431 8.62072C22.7143 8.14025 22.3998 7.73064 21.969 7.482C21.5382 7.23336 21.0262 7.16606 20.5457 7.29489C20.0652 7.42373 19.6556 7.73816 19.407 8.169L13.476 18.444L9.456 15.582C9.05063 15.3046 8.5526 15.1974 8.069 15.2834C7.5854 15.3693 7.15485 15.6416 6.86991 16.0417C6.58497 16.4418 6.46841 16.9377 6.54529 17.4229C6.62216 17.908 6.88633 18.3436 7.281 18.636L12.981 22.695C13.1936 22.8462 13.4355 22.9514 13.6911 23.0038C13.9467 23.0562 14.2104 23.0547 14.4654 22.9993C14.7203 22.944 14.961 22.836 15.1718 22.6824C15.3827 22.5287 15.5592 22.3328 15.69 22.107L22.656 10.044Z" fill="#1DBB49"/>
</g>
<defs>
<clipPath id="clip0_60_56">
<rect width="30" height="30" fill="white"/>
</clipPath>
</defs>
</svg>
