<svg width="17" height="17" viewBox="0 0 17 17" fill="none" xmlns="http://www.w3.org/2000/svg">
<path d="M8.33337 0.333252C3.92217 0.333252 0.333374 3.92205 0.333374 8.33325C0.333374 12.7445 3.92217 16.3333 8.33337 16.3333C12.7446 16.3333 16.3334 12.7445 16.3334 8.33325C16.3334 3.92205 12.7446 0.333252 8.33337 0.333252ZM8.33337 14.7333C4.80457 14.7333 1.93337 11.8621 1.93337 8.33325C1.93337 4.80445 4.80457 1.93325 8.33337 1.93325C11.8622 1.93325 14.7334 4.80445 14.7334 8.33325C14.7334 11.8621 11.8622 14.7333 8.33337 14.7333Z" fill="#8BCDFF"/>
<path d="M8.33342 7.53312C6.73342 7.53312 6.73342 7.03232 6.73342 6.73312C6.73342 6.34592 7.29422 5.93312 8.33342 5.93312C9.28142 5.93312 9.44222 6.44352 9.45342 6.74752L10.2534 6.73312H11.0534C11.0534 5.91232 10.5206 4.75792 9.13342 4.42992V3.54272H7.53342V4.40112C5.95662 4.66592 5.13342 5.70272 5.13342 6.73312C5.13342 7.62913 5.54942 9.13312 8.33342 9.13312C9.93342 9.13312 9.93342 9.67392 9.93342 9.93313C9.93342 10.2651 9.43742 10.7331 8.33342 10.7331C6.86062 10.7331 6.74222 10.0475 6.73342 9.93313H5.13342C5.13342 10.6675 5.66222 11.9755 7.53342 12.2691V13.1331H9.13342V12.2651C10.7102 12.0003 11.5334 10.9635 11.5334 9.93313C11.5334 9.03713 11.1174 7.53312 8.33342 7.53312Z" fill="#8BCDFF"/>
</svg>
