<svg viewBox="0 0 121 120" fill="none" xmlns="http://www.w3.org/2000/svg">
<g clip-path="url(#clip0_308_69)">
<path opacity="0.4" d="M94.8811 116.853L64.2811 77.653C64.1199 77.4604 63.9167 77.3073 63.6871 77.2054C63.4575 77.1035 63.2076 77.0556 62.9566 77.0652C62.7056 77.0749 62.4601 77.1419 62.239 77.2611C62.0179 77.3803 61.8271 77.5486 61.6811 77.753L55.5811 86.353C55.4349 86.5571 55.244 86.7251 55.0229 86.844C54.8018 86.963 54.5565 87.0299 54.3056 87.0396C54.0547 87.0492 53.805 87.0014 53.5754 86.8997C53.3459 86.7981 53.1426 86.6453 52.9811 86.453L39.9811 69.953C39.8208 69.7649 39.6215 69.6138 39.397 69.5101C39.1726 69.4065 38.9283 69.3528 38.6811 69.3528C38.4339 69.3528 38.1896 69.4065 37.9652 69.5101C37.7407 69.6138 37.5415 69.7649 37.3811 69.953L0.38112 116.953C0.174944 117.217 0.0436838 117.531 0.00116396 117.863C-0.0413558 118.195 0.00643879 118.532 0.139514 118.839C0.272589 119.146 0.486018 119.412 0.757323 119.608C1.02863 119.804 1.34776 119.923 1.68112 119.953H93.5811C93.9272 119.926 94.2592 119.803 94.5405 119.6C94.8218 119.396 95.0416 119.119 95.1759 118.799C95.3101 118.479 95.3537 118.128 95.3017 117.785C95.2497 117.441 95.1042 117.119 94.8811 116.853V116.853Z" fill="#BDC5D1"/>
<path d="M119.581 102.953L88.3811 59.453C88.2228 59.2391 88.0147 59.067 87.7748 58.9517C87.535 58.8363 87.2707 58.7812 87.0047 58.791C86.7388 58.8009 86.4792 58.8754 86.2486 59.0082C86.018 59.141 85.8232 59.328 85.6811 59.553L79.3811 69.153C79.2545 69.3968 79.0656 69.6026 78.8336 69.7496C78.6015 69.8965 78.3347 69.9793 78.0602 69.9894C77.7857 69.9996 77.5135 69.9368 77.2712 69.8074C77.0289 69.6781 76.8253 69.4868 76.6811 69.253L63.5811 50.853C63.4345 50.6444 63.2398 50.4742 63.0135 50.3567C62.7873 50.2391 62.5361 50.1778 62.2811 50.1778C62.0261 50.1778 61.7749 50.2391 61.5486 50.3567C61.3224 50.4742 61.1277 50.6444 60.9811 50.853L23.2811 103.053C22.3811 104.353 23.1811 106.353 24.5811 106.353H118.381C119.881 106.253 120.581 104.253 119.581 102.953Z" fill="#1a90ff"/>
<path d="M5.98124 58.853L2.68124 55.953C2.43326 55.7295 2.27592 55.4228 2.23905 55.091C2.20219 54.7592 2.28836 54.4255 2.48124 54.153L36.0812 15.153C36.3047 14.905 36.6114 14.7477 36.9432 14.7108C37.275 14.674 37.6088 14.7601 37.8812 14.953L41.2812 17.853C41.5292 18.0765 41.6866 18.3832 41.7234 18.715C41.7603 19.0468 41.6741 19.3805 41.4812 19.653L7.88124 58.653C7.78001 58.8047 7.64662 58.9322 7.49054 59.0266C7.33446 59.1209 7.15953 59.1797 6.97816 59.1988C6.7968 59.2179 6.61345 59.1968 6.44115 59.137C6.26886 59.0773 6.11183 58.9803 5.98124 58.853V58.853Z" fill="#1a90ff"/>
<path d="M44.6811 15.853L39.2811 11.153C38.9811 10.953 38.9811 10.453 39.1811 10.053L43.6811 4.85301C43.8476 4.71695 44.0514 4.63456 44.2656 4.61671C44.4798 4.59886 44.6945 4.64638 44.8811 4.75301L50.1811 9.45301C50.3191 9.61849 50.4028 9.82248 50.4207 10.0372C50.4386 10.2519 50.3899 10.467 50.2811 10.653L45.7811 15.853C45.709 15.9255 45.6233 15.9829 45.5289 16.0222C45.4346 16.0614 45.3333 16.0816 45.2311 16.0816C45.1289 16.0816 45.0277 16.0614 44.9333 16.0222C44.8389 15.9829 44.7532 15.9255 44.6811 15.853V15.853Z" fill="#1a90ff"/>
<path d="M40.281 4.75301L38.4811 6.95301C38.3235 7.10174 38.1252 7.20018 37.9115 7.2358C37.6978 7.27142 37.4783 7.2426 37.281 7.15301C35.181 5.65301 28.8811 1.45301 22.8811 3.75301C22.4811 3.75301 22.0811 3.75301 21.8811 3.45301C21.7858 3.3456 21.7147 3.21894 21.6728 3.08163C21.6308 2.94432 21.6189 2.79958 21.6379 2.65726C21.6569 2.51495 21.7063 2.37838 21.7828 2.25686C21.8592 2.13534 21.961 2.03171 22.0811 1.95301C24.7811 0.453014 32.0811 -2.24699 40.1811 3.55301C40.2815 3.61389 40.3661 3.69768 40.428 3.79753C40.4898 3.89739 40.5272 4.01047 40.5369 4.12753C40.5467 4.24458 40.5286 4.36228 40.4841 4.471C40.4396 4.57971 40.37 4.67635 40.281 4.75301V4.75301Z" fill="#BDC5D1"/>
<path d="M50.881 13.853L49.081 16.053C48.9361 16.2193 48.8562 16.4324 48.8562 16.653C48.8562 16.8736 48.9361 17.0868 49.081 17.253C50.881 19.053 55.881 24.753 54.681 31.053C54.6294 31.2155 54.6307 31.3901 54.6846 31.5518C54.7385 31.7135 54.8423 31.854 54.981 31.953C55.0916 32.052 55.2238 32.1239 55.367 32.1629C55.5102 32.202 55.6605 32.2072 55.806 32.1781C55.9516 32.149 56.0884 32.0864 56.2055 31.9952C56.3227 31.9041 56.417 31.7869 56.481 31.653C57.481 28.753 59.181 21.153 52.281 13.953C52.1973 13.8521 52.094 13.7692 51.9774 13.7093C51.8607 13.6494 51.7332 13.6136 51.6024 13.6043C51.4716 13.595 51.3402 13.6122 51.2163 13.6549C51.0923 13.6977 50.9783 13.7651 50.881 13.853V13.853Z" fill="#BDC5D1"/>
<path d="M91.4812 43.953C91.2261 43.7084 91.0737 43.3758 91.0551 43.0228C91.0366 42.6698 91.1531 42.3231 91.3812 42.053L92.5812 40.753C92.8258 40.4979 93.1584 40.3456 93.5114 40.327C93.8643 40.3084 94.2111 40.425 94.4812 40.653V40.653C94.7363 40.8976 94.8886 41.2303 94.9072 41.5832C94.9258 41.9362 94.8092 42.283 94.5812 42.553L93.3812 43.853C93.1353 44.106 92.803 44.2568 92.4508 44.2754C92.0985 44.2939 91.7522 44.1788 91.4812 43.953V43.953Z" fill="#BDC5D1"/>
<path d="M97.2813 37.253C97.0001 37.0838 96.7928 36.8152 96.7002 36.5004C96.6076 36.1856 96.6365 35.8475 96.7813 35.553C97.0553 35.073 97.2894 34.5713 97.4812 34.053C97.6042 33.7509 97.8402 33.5087 98.139 33.378C98.4379 33.2472 98.7759 33.2383 99.0812 33.353C99.2572 33.4114 99.4191 33.5059 99.5564 33.6304C99.6938 33.755 99.8036 33.9068 99.879 34.0763C99.9543 34.2457 99.9934 34.429 99.9938 34.6144C99.9941 34.7998 99.9558 34.9833 99.8812 35.153C99.6756 35.7464 99.4074 36.3163 99.0812 36.853C98.9913 36.9996 98.8727 37.1267 98.7327 37.2266C98.5926 37.3264 98.4339 37.3972 98.266 37.4345C98.0981 37.4718 97.9244 37.475 97.7552 37.4438C97.586 37.4126 97.4248 37.3477 97.2813 37.253Z" fill="#BDC5D1"/>
<path d="M100.781 29.353C100.459 29.3352 100.153 29.2057 99.9155 28.9867C99.6782 28.7677 99.5247 28.4729 99.4812 28.153C99.464 27.5816 99.3971 27.0128 99.2812 26.453C99.2282 26.123 99.3017 25.7851 99.4871 25.5069C99.6725 25.2288 99.9562 25.0309 100.281 24.953C100.46 24.9018 100.647 24.8908 100.83 24.9206C101.013 24.9505 101.188 25.0205 101.341 25.1256C101.494 25.2308 101.621 25.3684 101.715 25.5288C101.808 25.6891 101.865 25.8681 101.881 26.053C101.997 26.6802 102.064 27.3154 102.081 27.953C102.113 28.1352 102.102 28.3223 102.05 28.4997C101.997 28.677 101.904 28.8398 101.778 28.9753C101.652 29.1109 101.497 29.2155 101.324 29.281C101.151 29.3465 100.965 29.3712 100.781 29.353V29.353Z" fill="#BDC5D1"/>
<path d="M96.581 20.753C96.281 20.253 95.981 19.753 95.681 19.353C95.4911 19.0795 95.4067 18.7464 95.4435 18.4155C95.4803 18.0846 95.6357 17.7781 95.881 17.553V17.553C96.0159 17.4346 96.1738 17.3454 96.3449 17.291C96.5159 17.2366 96.6963 17.2183 96.8748 17.2371C97.0533 17.2559 97.226 17.3114 97.3819 17.4002C97.5379 17.489 97.6738 17.6091 97.781 17.753C98.1718 18.2482 98.5071 18.7847 98.781 19.353C98.8711 19.5161 98.9271 19.6959 98.9456 19.8813C98.964 20.0667 98.9446 20.254 98.8885 20.4317C98.8324 20.6094 98.7408 20.7738 98.6191 20.915C98.4975 21.0562 98.3485 21.1712 98.181 21.253V21.253C97.9023 21.3973 97.5778 21.4258 97.2782 21.3322C96.9786 21.2385 96.728 21.0304 96.581 20.753V20.753Z" fill="#BDC5D1"/>
<path d="M90.9811 14.353L89.6811 13.053C89.4402 12.7953 89.3062 12.4558 89.3062 12.103C89.3062 11.7503 89.4402 11.4107 89.6811 11.153V11.153C89.9388 10.9121 90.2783 10.7781 90.6311 10.7781C90.9838 10.7781 91.3234 10.9121 91.5811 11.153L92.8811 12.453C93.122 12.7107 93.256 13.0503 93.256 13.403C93.256 13.7558 93.122 14.0953 92.8811 14.353V14.353C92.6234 14.5939 92.2838 14.728 91.9311 14.728C91.5783 14.728 91.2388 14.5939 90.9811 14.353V14.353Z" fill="#BDC5D1"/>
<path d="M85.7812 8.45299L84.3812 7.35299C84.2385 7.24491 84.1194 7.10868 84.0314 6.95273C83.9433 6.79678 83.8882 6.62443 83.8695 6.44634C83.8508 6.26824 83.8687 6.0882 83.9224 5.91734C83.976 5.74648 84.0641 5.58844 84.1812 5.45299C84.2893 5.31021 84.4256 5.19113 84.5815 5.1031C84.7375 5.01508 84.9098 4.95999 85.0879 4.94124C85.266 4.9225 85.446 4.94049 85.6169 4.99411C85.7878 5.04774 85.9458 5.13585 86.0812 5.25299L87.4812 6.35299C87.624 6.46108 87.7431 6.59731 87.8311 6.75326C87.9192 6.90921 87.9742 7.08156 87.993 7.25965C88.0117 7.43774 87.9937 7.61779 87.9401 7.78865C87.8865 7.95951 87.7984 8.11755 87.6812 8.25299V8.25299C87.4359 8.49976 87.1129 8.65438 86.7668 8.69081C86.4207 8.72724 86.0726 8.64325 85.7812 8.45299Z" fill="#BDC5D1"/>
<path d="M60.4811 9.15299C60.3392 9.04428 60.2209 8.9078 60.1335 8.75186C60.046 8.59592 59.9913 8.4238 59.9726 8.246C59.9538 8.0682 59.9716 7.88845 60.0246 7.71773C60.0777 7.547 60.1649 7.38887 60.2811 7.25299C60.6811 6.75299 61.1811 6.35299 61.5811 5.85299C61.709 5.72812 61.8614 5.63111 62.0287 5.56808C62.196 5.50504 62.3745 5.47735 62.553 5.48674C62.7315 5.49614 62.9062 5.54242 63.0659 5.62267C63.2256 5.70291 63.367 5.81539 63.4811 5.95299V5.95299C63.6842 6.21468 63.786 6.54093 63.7676 6.87169C63.7492 7.20244 63.612 7.51542 63.3811 7.75299L62.1811 8.95299C61.9807 9.20278 61.6901 9.36375 61.3721 9.40117C61.054 9.43858 60.734 9.34945 60.4811 9.15299V9.15299Z" fill="#BDC5D1"/>
<path d="M67.2812 3.753C67.1506 3.40808 67.1613 3.02555 67.3111 2.68851C67.4609 2.35147 67.7376 2.08716 68.0812 1.953C68.6674 1.74016 69.2692 1.57299 69.8812 1.453C70.0596 1.40185 70.2471 1.3908 70.4303 1.42064C70.6134 1.45048 70.7877 1.52048 70.9406 1.62562C71.0936 1.73076 71.2213 1.86843 71.3148 2.02876C71.4083 2.1891 71.4651 2.36812 71.4812 2.553V2.553C71.5343 2.88304 71.4607 3.22094 71.2753 3.49908C71.0899 3.77722 70.8063 3.97506 70.4812 4.053C69.9346 4.1738 69.3993 4.34108 68.8812 4.553C68.5645 4.60209 68.2403 4.55145 67.9536 4.40812C67.667 4.26478 67.432 4.03583 67.2812 3.753V3.753Z" fill="#BDC5D1"/>
<path d="M78.581 4.353C78.0605 4.17286 77.5251 4.03901 76.981 3.953C76.6637 3.89813 76.3808 3.7204 76.1936 3.45833C76.0064 3.19627 75.93 2.87099 75.981 2.553V2.553C75.9972 2.36812 76.054 2.1891 76.1474 2.02876C76.2409 1.86843 76.3687 1.73076 76.5216 1.62562C76.6745 1.52048 76.8488 1.45048 77.032 1.42064C77.2151 1.3908 77.4026 1.40185 77.581 1.453C78.193 1.573 78.7948 1.74016 79.381 1.953C79.5539 2.01573 79.7124 2.1127 79.8469 2.23811C79.9814 2.36351 80.0892 2.51477 80.1639 2.68282C80.2386 2.85088 80.2786 3.03228 80.2816 3.21617C80.2845 3.40005 80.2503 3.58264 80.181 3.753V3.753C80.0154 4.01289 79.7698 4.21192 79.4812 4.32014C79.1926 4.42835 78.8767 4.43988 78.581 4.353V4.353Z" fill="#BDC5D1"/>
</g>
<defs>
<clipPath id="clip0_308_69">
<rect width="120.048" height="119.953" fill="white"/>
</clipPath>
</defs>
</svg>
