<svg width="50" height="50" viewBox="0 0 50 50" fill="none" xmlns="http://www.w3.org/2000/svg">
<path d="M24.575 0L2.5 12.575V38.2425L19.5625 48.1825L19.4775 44.0075L5.925 36.07V17L22.8175 26.545V49L24.6 50L26.44 48.9975V26.5475L43.3075 17V36.07L29.8375 43.84V48.015L46.9825 38.43V12.5725L24.575 0ZM24.575 23.5375L8.095 13.8275L24.57 4.135L41.445 13.8275L24.57 23.5375H24.575ZM11.87 32.955L15.17 31.075L14.89 30.585L11.59 32.465L11.87 32.955ZM17.65 29.65L20.95 27.77L20.6675 27.28L17.3675 29.16L17.65 29.65ZM24.82 20.8325V17.0525H24.255V20.8325H24.82ZM24.82 14.2425V10.4425H24.255V14.2425H24.82ZM24.82 7.9075V4.1075H24.255V7.9075H24.82ZM31.955 29.1825L28.68 27.2825L28.395 27.77L31.6725 29.67L31.9575 29.18L31.955 29.1825ZM37.6725 32.4875L34.3725 30.5875L34.09 31.075L37.39 32.975L37.6725 32.4875ZM6.0375 36.2875L9.315 34.41L9.035 33.92L5.7575 35.7975L6.0375 36.2875ZM43.485 35.7925L40.2075 33.8925L39.9225 34.38L43.2 36.28L43.485 35.7925Z" fill="white"/>
</svg>
