<svg width="50" height="50" viewBox="0 0 50 50" fill="none" xmlns="http://www.w3.org/2000/svg">
<path d="M31.25 47.3958H18.75C7.43746 47.3958 2.60413 42.5625 2.60413 31.25V18.75C2.60413 7.43746 7.43746 2.60413 18.75 2.60413H31.25C42.5625 2.60413 47.3958 7.43746 47.3958 18.75V31.25C47.3958 42.5625 42.5625 47.3958 31.25 47.3958ZM18.75 5.72913C9.14579 5.72913 5.72913 9.14579 5.72913 18.75V31.25C5.72913 40.8541 9.14579 44.2708 18.75 44.2708H31.25C40.8541 44.2708 44.2708 40.8541 44.2708 31.25V18.75C44.2708 9.14579 40.8541 5.72913 31.25 5.72913H18.75Z" fill="white"/>
<path d="M15.271 31.75C14.9377 31.75 14.6044 31.6458 14.3127 31.4167C13.6252 30.8958 13.5002 29.9167 14.021 29.2292L18.9794 22.7917C19.5835 22.0208 20.4377 21.5208 21.4168 21.3958C22.3752 21.2708 23.3543 21.5417 24.1252 22.1458L27.9377 25.1458C28.0835 25.2708 28.2293 25.2708 28.3335 25.25C28.4168 25.25 28.5627 25.2083 28.6877 25.0417L33.5002 18.8333C34.021 18.1458 35.021 18.0208 35.6877 18.5625C36.3752 19.0833 36.5002 20.0625 35.9585 20.75L31.146 26.9583C30.5418 27.7292 29.6877 28.2292 28.7085 28.3333C27.7293 28.4583 26.771 28.1875 26.0002 27.5833L22.1877 24.5833C22.0418 24.4583 21.8752 24.4583 21.7918 24.4792C21.7085 24.4792 21.5627 24.5208 21.4377 24.6875L16.4794 31.125C16.2085 31.5417 15.7502 31.75 15.271 31.75Z" fill="white"/>
</svg>
