<svg width="56" height="53" viewBox="0 0 56 53" fill="none" xmlns="http://www.w3.org/2000/svg">
<path d="M44.8261 17.49V28.863C44.8261 35.6646 40.7384 38.5796 34.6067 38.5796H14.1911C13.1459 38.5796 12.1472 38.4913 11.2182 38.2926C10.6375 38.2042 10.0801 38.0496 9.56912 37.873C6.08524 36.6363 3.97168 33.7655 3.97168 28.863V17.49C3.97168 10.6883 8.05942 7.77344 14.1911 7.77344H34.6067C39.8093 7.77344 43.5487 9.87133 44.5474 14.6634C44.71 15.5467 44.8261 16.4521 44.8261 17.49Z" stroke="white" stroke-width="2" stroke-miterlimit="10" stroke-linecap="round" stroke-linejoin="round"/>
<path d="M51.7966 24.1152V35.4881C51.7966 42.2897 47.7088 45.2047 41.5772 45.2047H21.1615C19.4428 45.2047 17.8867 44.9839 16.5396 44.4981C13.7757 43.5264 11.8944 41.5168 11.2208 38.2927C12.1499 38.4914 13.1486 38.5797 14.1937 38.5797H34.6094C40.7411 38.5797 44.8288 35.6647 44.8288 28.8631V17.4902C44.8288 16.4522 44.7359 15.5248 44.5501 14.6636C48.963 15.5469 51.7966 18.506 51.7966 24.1152Z" stroke="white" stroke-width="2" stroke-miterlimit="10" stroke-linecap="round" stroke-linejoin="round"/>
<path d="M24.3833 29.0173C27.7697 29.0173 30.515 26.407 30.515 23.1873C30.515 19.9674 27.7697 17.3572 24.3833 17.3572C20.997 17.3572 18.2517 19.9674 18.2517 23.1873C18.2517 26.407 20.997 29.0173 24.3833 29.0173Z" stroke="white" stroke-width="2" stroke-miterlimit="10" stroke-linecap="round" stroke-linejoin="round"/>
<path d="M11.1018 18.3292V28.046" stroke="white" stroke-width="2" stroke-miterlimit="10" stroke-linecap="round" stroke-linejoin="round"/>
<path d="M37.6765 18.3298V28.0465" stroke="white" stroke-width="2" stroke-miterlimit="10" stroke-linecap="round" stroke-linejoin="round"/>
</svg>
