<svg width="50" height="50" viewBox="0 0 50 50" fill="879FCB" xmlns="http://www.w3.org/2000/svg">
<path d="M14.9371 47.3949C9.9788 47.3949 5.91638 43.7908 5.91638 39.3533V35.1033C5.91638 34.2491 6.62472 33.5408 7.47888 33.5408C8.33305 33.5408 9.04138 34.2491 9.04138 35.1033C9.04138 37.7074 11.5621 39.6658 14.9371 39.6658C18.3121 39.6658 20.833 37.7074 20.833 35.1033C20.833 34.2491 21.5413 33.5408 22.3955 33.5408C23.2496 33.5408 23.958 34.2491 23.958 35.1033V39.3533C23.958 43.7908 19.9163 47.3949 14.9371 47.3949ZM9.58294 41.3949C10.4996 43.1033 12.5621 44.2699 14.9371 44.2699C17.3121 44.2699 19.3747 43.0824 20.2913 41.3949C18.8122 42.2908 16.9788 42.8116 14.9371 42.8116C12.8955 42.8116 11.0621 42.2908 9.58294 41.3949Z" fill="white"/>
<path d="M14.9371 37.0821C11.5205 37.0821 8.45803 35.5196 6.93719 33.0404C6.27053 31.9571 5.91638 30.6863 5.91638 29.3946C5.91638 27.2071 6.87469 25.1654 8.62469 23.6446C11.9997 20.6863 17.8122 20.6864 21.208 23.624C22.958 25.1656 23.9371 27.2071 23.9371 29.3946C23.9371 30.6863 23.583 31.9571 22.9163 33.0404C21.4163 35.5196 18.3538 37.0821 14.9371 37.0821ZM14.9371 24.4781C13.3121 24.4781 11.8122 25.0196 10.6872 25.9988C9.62467 26.9154 9.04138 28.1238 9.04138 29.3946C9.04138 30.1238 9.2288 30.7906 9.6038 31.4156C10.5621 32.999 12.6038 33.9781 14.9371 33.9781C17.2705 33.9781 19.3121 32.999 20.2496 31.4365C20.6246 30.8323 20.8122 30.1448 20.8122 29.4156C20.8122 28.1448 20.2289 26.9363 19.1664 25.9988C18.0622 25.0196 16.5621 24.4781 14.9371 24.4781Z" fill="white"/>
<path d="M14.9371 42.8125C9.7913 42.8125 5.91638 39.5 5.91638 35.125V29.3958C5.91638 24.9583 9.95796 21.3541 14.9371 21.3541C17.2913 21.3541 19.5413 22.1666 21.2288 23.625C22.9788 25.1666 23.958 27.2083 23.958 29.3958V35.125C23.958 39.5 20.083 42.8125 14.9371 42.8125ZM14.9371 24.4791C11.6871 24.4791 9.04138 26.6875 9.04138 29.3958V35.125C9.04138 37.7291 11.5621 39.6875 14.9371 39.6875C18.3121 39.6875 20.833 37.7291 20.833 35.125V29.3958C20.833 28.125 20.2497 26.9166 19.1872 25.9791C18.0622 25.0208 16.5621 24.4791 14.9371 24.4791Z" fill="white"/>
<path d="M39.6664 30.8338C36.5206 30.8338 33.8539 28.5004 33.6039 25.5004C33.4372 23.7713 34.0622 22.0838 35.3122 20.8546C36.3539 19.7713 37.8331 19.1671 39.3956 19.1671H43.7497C45.8122 19.2296 47.3956 20.8546 47.3956 22.8546V27.1463C47.3956 29.1463 45.8122 30.7713 43.8122 30.8338H39.6664ZM43.6872 22.2921H39.4164C38.6872 22.2921 38.0206 22.5629 37.5414 23.0629C36.9372 23.6463 36.6456 24.4379 36.7289 25.2296C36.8331 26.6046 38.1664 27.7088 39.6664 27.7088H43.7497C44.0206 27.7088 44.2706 27.4588 44.2706 27.1463V22.8546C44.2706 22.5421 44.0206 22.3129 43.6872 22.2921Z" fill="white"/>
<path d="M33.3338 44.2708H28.1255C27.2713 44.2708 26.563 43.5625 26.563 42.7083C26.563 41.8541 27.2713 41.1458 28.1255 41.1458H33.3338C38.7088 41.1458 42.188 37.6666 42.188 32.2916V30.8333H39.6671C36.5213 30.8333 33.8546 28.5 33.6046 25.5C33.438 23.7708 34.0632 22.0833 35.3132 20.8541C36.3548 19.7708 37.8338 19.1666 39.3963 19.1666H42.1671V17.7083C42.1671 12.8333 39.3132 9.47908 34.6882 8.93742C34.1882 8.85408 33.7505 8.85413 33.313 8.85413H14.563C14.063 8.85413 13.5838 8.89577 13.1047 8.95827C8.52134 9.54161 5.70886 12.875 5.70886 17.7083V21.875C5.70886 22.7291 5.00053 23.4375 4.14636 23.4375C3.2922 23.4375 2.58386 22.7291 2.58386 21.875V17.7083C2.58386 11.2916 6.54228 6.64581 12.6881 5.87498C13.2506 5.79165 13.8964 5.72913 14.563 5.72913H33.313C33.813 5.72913 34.4588 5.74996 35.1255 5.85413C41.2713 6.56246 45.2921 11.2291 45.2921 17.7083V20.7291C45.2921 21.5833 44.5838 22.2916 43.7296 22.2916H39.3963C38.6671 22.2916 38.0007 22.5625 37.5215 23.0625C36.9173 23.6458 36.6255 24.4375 36.7088 25.2291C36.813 26.6041 38.1465 27.7083 39.6465 27.7083H43.7505C44.6046 27.7083 45.313 28.4166 45.313 29.2708V32.2916C45.313 39.4583 40.5005 44.2708 33.3338 44.2708Z" fill="white"/>
</svg>
