<svg width="54" height="56" viewBox="0 0 54 56" fill="none" xmlns="http://www.w3.org/2000/svg">
<g filter="url(#filter0_d_59_48)">
<path d="M16.9371 47.3949C11.9788 47.3949 7.91638 43.7908 7.91638 39.3533V35.1033C7.91638 34.2491 8.62472 33.5408 9.47888 33.5408C10.333 33.5408 11.0414 34.2491 11.0414 35.1033C11.0414 37.7074 13.5621 39.6658 16.9371 39.6658C20.3121 39.6658 22.833 37.7074 22.833 35.1033C22.833 34.2491 23.5413 33.5408 24.3955 33.5408C25.2496 33.5408 25.958 34.2491 25.958 35.1033V39.3533C25.958 43.7908 21.9163 47.3949 16.9371 47.3949ZM11.5829 41.3949C12.4996 43.1033 14.5621 44.2699 16.9371 44.2699C19.3121 44.2699 21.3747 43.0824 22.2913 41.3949C20.8122 42.2908 18.9788 42.8116 16.9371 42.8116C14.8955 42.8116 13.0621 42.2908 11.5829 41.3949Z" fill="#879FCB"/>
<path d="M16.9371 37.0821C13.5205 37.0821 10.458 35.5196 8.93719 33.0404C8.27053 31.9571 7.91638 30.6863 7.91638 29.3946C7.91638 27.2071 8.87469 25.1654 10.6247 23.6446C13.9997 20.6863 19.8122 20.6864 23.208 23.624C24.958 25.1656 25.9371 27.2071 25.9371 29.3946C25.9371 30.6863 25.583 31.9571 24.9163 33.0404C23.4163 35.5196 20.3538 37.0821 16.9371 37.0821ZM16.9371 24.4781C15.3121 24.4781 13.8122 25.0196 12.6872 25.9988C11.6247 26.9154 11.0414 28.1238 11.0414 29.3946C11.0414 30.1238 11.2288 30.7906 11.6038 31.4156C12.5621 32.999 14.6038 33.9781 16.9371 33.9781C19.2705 33.9781 21.3121 32.999 22.2496 31.4365C22.6246 30.8323 22.8122 30.1448 22.8122 29.4156C22.8122 28.1448 22.2289 26.9363 21.1664 25.9988C20.0622 25.0196 18.5621 24.4781 16.9371 24.4781Z" fill="#879FCB"/>
<path d="M16.9371 42.8125C11.7913 42.8125 7.91638 39.5 7.91638 35.125V29.3958C7.91638 24.9583 11.958 21.3541 16.9371 21.3541C19.2913 21.3541 21.5413 22.1666 23.2288 23.625C24.9788 25.1666 25.958 27.2083 25.958 29.3958V35.125C25.958 39.5 22.083 42.8125 16.9371 42.8125ZM16.9371 24.4791C13.6871 24.4791 11.0414 26.6875 11.0414 29.3958V35.125C11.0414 37.7291 13.5621 39.6875 16.9371 39.6875C20.3121 39.6875 22.833 37.7291 22.833 35.125V29.3958C22.833 28.125 22.2497 26.9166 21.1872 25.9791C20.0622 25.0208 18.5621 24.4791 16.9371 24.4791Z" fill="#879FCB"/>
<path d="M41.6664 30.8338C38.5206 30.8338 35.8539 28.5004 35.6039 25.5004C35.4372 23.7713 36.0622 22.0838 37.3122 20.8546C38.3539 19.7713 39.8331 19.1671 41.3956 19.1671H45.7497C47.8122 19.2296 49.3956 20.8546 49.3956 22.8546V27.1463C49.3956 29.1463 47.8122 30.7713 45.8122 30.8338H41.6664ZM45.6872 22.2921H41.4164C40.6872 22.2921 40.0206 22.5629 39.5414 23.0629C38.9372 23.6463 38.6456 24.4379 38.7289 25.2296C38.8331 26.6046 40.1664 27.7088 41.6664 27.7088H45.7497C46.0206 27.7088 46.2706 27.4588 46.2706 27.1463V22.8546C46.2706 22.5421 46.0206 22.3129 45.6872 22.2921Z" fill="#879FCB"/>
<path d="M35.3338 44.2708H30.1255C29.2713 44.2708 28.563 43.5625 28.563 42.7083C28.563 41.8541 29.2713 41.1458 30.1255 41.1458H35.3338C40.7088 41.1458 44.188 37.6666 44.188 32.2916V30.8333H41.6671C38.5213 30.8333 35.8546 28.5 35.6046 25.5C35.438 23.7708 36.0632 22.0833 37.3132 20.8541C38.3548 19.7708 39.8338 19.1666 41.3963 19.1666H44.1671V17.7083C44.1671 12.8333 41.3132 9.47908 36.6882 8.93742C36.1882 8.85408 35.7505 8.85413 35.313 8.85413H16.563C16.063 8.85413 15.5838 8.89577 15.1047 8.95827C10.5213 9.54161 7.70886 12.875 7.70886 17.7083V21.875C7.70886 22.7291 7.00053 23.4375 6.14636 23.4375C5.2922 23.4375 4.58386 22.7291 4.58386 21.875V17.7083C4.58386 11.2916 8.54228 6.64581 14.6881 5.87498C15.2506 5.79165 15.8964 5.72913 16.563 5.72913H35.313C35.813 5.72913 36.4588 5.74996 37.1255 5.85413C43.2713 6.56246 47.2921 11.2291 47.2921 17.7083V20.7291C47.2921 21.5833 46.5838 22.2916 45.7296 22.2916H41.3963C40.6671 22.2916 40.0007 22.5625 39.5215 23.0625C38.9173 23.6458 38.6255 24.4375 38.7088 25.2291C38.813 26.6041 40.1465 27.7083 41.6465 27.7083H45.7505C46.6046 27.7083 47.313 28.4166 47.313 29.2708V32.2916C47.313 39.4583 42.5005 44.2708 35.3338 44.2708Z" fill="#879FCB"/>
</g>
<defs>
<filter id="filter0_d_59_48" x="-2" y="0" width="58" height="58" filterUnits="userSpaceOnUse" color-interpolation-filters="sRGB">
<feFlood flood-opacity="0" result="BackgroundImageFix"/>
<feColorMatrix in="SourceAlpha" type="matrix" values="0 0 0 0 0 0 0 0 0 0 0 0 0 0 0 0 0 0 127 0" result="hardAlpha"/>
<feOffset dy="4"/>
<feGaussianBlur stdDeviation="2"/>
<feComposite in2="hardAlpha" operator="out"/>
<feColorMatrix type="matrix" values="0 0 0 0 0 0 0 0 0 0 0 0 0 0 0 0 0 0 0.25 0"/>
<feBlend mode="normal" in2="BackgroundImageFix" result="effect1_dropShadow_59_48"/>
<feBlend mode="normal" in="SourceGraphic" in2="effect1_dropShadow_59_48" result="shape"/>
</filter>
</defs>
</svg>
